<svg width="32" height="32" viewBox="0 0 32 32" fill="none" xmlns="http://www.w3.org/2000/svg">
<rect width="32" height="32" rx="8" fill="white"/>
<path d="M9.46255 16.9131C9.46255 17.228 9.38625 17.5017 9.23365 17.7342C9.08105 17.9667 8.85821 18.146 8.56512 18.2719C8.27445 18.3979 7.92081 18.4609 7.50419 18.4609C7.3201 18.4609 7.13965 18.4488 6.96283 18.4245C6.78843 18.4003 6.62009 18.3652 6.4578 18.3192C6.29793 18.2707 6.14533 18.2114 6 18.1411V17.0947C6.25191 17.2062 6.51351 17.3067 6.7848 17.3963C7.05608 17.4859 7.32495 17.5307 7.59139 17.5307C7.77548 17.5307 7.92323 17.5065 8.03466 17.4581C8.1485 17.4096 8.23086 17.343 8.28172 17.2582C8.33259 17.1735 8.35802 17.0766 8.35802 16.9676C8.35802 16.8344 8.31321 16.7205 8.22359 16.626C8.13397 16.5316 8.01043 16.4432 7.85299 16.3608C7.69797 16.2785 7.52236 16.1901 7.32616 16.0956C7.20263 16.0375 7.06819 15.9672 6.92286 15.8849C6.77753 15.8001 6.63946 15.6971 6.50866 15.576C6.37786 15.4549 6.27008 15.3084 6.1853 15.1364C6.10294 14.962 6.06177 14.7537 6.06177 14.5115C6.06177 14.1941 6.13443 13.9229 6.27977 13.6976C6.4251 13.4723 6.6322 13.3004 6.90106 13.1817C7.17235 13.0606 7.49208 13 7.86026 13C8.13639 13 8.3992 13.0327 8.64869 13.0981C8.9006 13.1611 9.16341 13.2531 9.43712 13.3742L9.07378 14.2499C8.82914 14.1505 8.60993 14.0743 8.41615 14.021C8.22238 13.9653 8.02497 13.9374 7.82392 13.9374C7.68344 13.9374 7.56354 13.9604 7.46423 14.0064C7.36492 14.05 7.28983 14.113 7.23896 14.1954C7.18809 14.2753 7.16266 14.3685 7.16266 14.4751C7.16266 14.6011 7.19899 14.7077 7.27166 14.7949C7.34675 14.8796 7.45817 14.962 7.60593 15.0419C7.7561 15.1219 7.94261 15.2151 8.16546 15.3217C8.43674 15.4501 8.66806 15.5845 8.85942 15.725C9.0532 15.8631 9.20216 16.0266 9.30632 16.2155C9.41047 16.402 9.46255 16.6345 9.46255 16.9131Z" fill="#2C0076"/>
<path d="M16.9508 13.0763L15.5992 18.3882H14.3167L13.5973 15.5978C13.5827 15.5445 13.5634 15.4634 13.5391 15.3544C13.5149 15.2454 13.4895 15.1267 13.4628 14.9983C13.4362 14.8675 13.412 14.7452 13.3902 14.6314C13.3708 14.5151 13.3575 14.423 13.3502 14.3552C13.3429 14.423 13.3284 14.5139 13.3066 14.6277C13.2872 14.7416 13.2642 14.8627 13.2376 14.9911C13.2133 15.1194 13.1891 15.2393 13.1649 15.3508C13.1407 15.4622 13.1213 15.547 13.1068 15.6051L12.391 18.3882H11.1121L9.75685 13.0763H10.865L11.5444 15.9757C11.5638 16.0629 11.5856 16.167 11.6098 16.2882C11.6365 16.4093 11.6619 16.5364 11.6861 16.6696C11.7128 16.8004 11.7358 16.9276 11.7552 17.0511C11.777 17.1723 11.7927 17.2776 11.8024 17.3672C11.8145 17.2752 11.8303 17.1686 11.8496 17.0475C11.869 16.924 11.8896 16.7992 11.9114 16.6733C11.9356 16.5449 11.9598 16.4262 11.9841 16.3172C12.0083 16.2082 12.0301 16.1198 12.0495 16.052L12.8234 13.0763H13.8879L14.6618 16.052C14.6788 16.1174 14.6982 16.2058 14.72 16.3172C14.7442 16.4262 14.7684 16.5449 14.7926 16.6733C14.8168 16.8017 14.8386 16.9276 14.858 17.0511C14.8798 17.1723 14.8956 17.2776 14.9053 17.3672C14.9222 17.2461 14.9452 17.0996 14.9743 16.9276C15.0058 16.7532 15.0385 16.58 15.0724 16.408C15.1087 16.2361 15.1402 16.092 15.1669 15.9757L15.8426 13.0763H16.9508Z" fill="#2C0076"/>
<path d="M19.8756 13.9374C19.6601 13.9374 19.4687 13.9798 19.3016 14.0646C19.1369 14.1469 18.9976 14.2668 18.8837 14.4243C18.7723 14.5817 18.6875 14.7718 18.6294 14.9947C18.5713 15.2175 18.5422 15.4682 18.5422 15.7468C18.5422 16.1222 18.5882 16.4432 18.6803 16.7096C18.7747 16.9736 18.9201 17.1759 19.1163 17.3164C19.3125 17.4544 19.5656 17.5235 19.8756 17.5235C20.0912 17.5235 20.3068 17.4993 20.5224 17.4508C20.7404 17.4024 20.9765 17.3333 21.2309 17.2437V18.1884C20.9959 18.2853 20.7646 18.3543 20.5369 18.3955C20.3092 18.4391 20.0537 18.4609 19.7703 18.4609C19.2228 18.4609 18.7723 18.3482 18.4187 18.123C18.0674 17.8953 17.8071 17.578 17.6375 17.171C17.468 16.7617 17.3832 16.2845 17.3832 15.7395C17.3832 15.3374 17.4377 14.9693 17.5467 14.635C17.6557 14.3007 17.8155 14.0113 18.0263 13.7666C18.237 13.522 18.4974 13.3331 18.8074 13.1998C19.1175 13.0666 19.4735 13 19.8756 13C20.1396 13 20.4037 13.0339 20.6677 13.1017C20.9341 13.1671 21.1885 13.258 21.4307 13.3742L21.0674 14.2898C20.8687 14.1954 20.6689 14.113 20.4679 14.0428C20.2668 13.9725 20.0694 13.9374 19.8756 13.9374Z" fill="#2C0076"/>
<path d="M25.5 16.9131C25.5 17.228 25.4237 17.5017 25.2711 17.7342C25.1185 17.9667 24.8957 18.146 24.6026 18.2719C24.3119 18.3979 23.9583 18.4609 23.5416 18.4609C23.3576 18.4609 23.1771 18.4488 23.0003 18.4245C22.8259 18.4003 22.6575 18.3652 22.4952 18.3192C22.3354 18.2707 22.1828 18.2114 22.0375 18.1411V17.0947C22.2894 17.2062 22.551 17.3067 22.8222 17.3963C23.0935 17.4859 23.3624 17.5307 23.6288 17.5307C23.8129 17.5307 23.9607 17.5065 24.0721 17.4581C24.186 17.4096 24.2683 17.343 24.3192 17.2582C24.37 17.1735 24.3955 17.0766 24.3955 16.9676C24.3955 16.8344 24.3507 16.7205 24.261 16.626C24.1714 16.5316 24.0479 16.4432 23.8904 16.3608C23.7354 16.2785 23.5598 16.1901 23.3636 16.0956C23.2401 16.0375 23.1056 15.9672 22.9603 15.8849C22.815 15.8001 22.6769 15.6971 22.5461 15.576C22.4153 15.4549 22.3075 15.3084 22.2227 15.1364C22.1404 14.962 22.0992 14.7537 22.0992 14.5115C22.0992 14.1941 22.1719 13.9229 22.3172 13.6976C22.4625 13.4723 22.6696 13.3004 22.9385 13.1817C23.2098 13.0606 23.5295 13 23.8977 13C24.1738 13 24.4366 13.0327 24.6861 13.0981C24.938 13.1611 25.2009 13.2531 25.4746 13.3742L25.1112 14.2499C24.8666 14.1505 24.6474 14.0743 24.4536 14.021C24.2598 13.9653 24.0624 13.9374 23.8614 13.9374C23.7209 13.9374 23.601 13.9604 23.5017 14.0064C23.4024 14.05 23.3273 14.113 23.2764 14.1954C23.2255 14.2753 23.2001 14.3685 23.2001 14.4751C23.2001 14.6011 23.2364 14.7077 23.3091 14.7949C23.3842 14.8796 23.4956 14.962 23.6434 15.0419C23.7936 15.1219 23.9801 15.2151 24.2029 15.3217C24.4742 15.4501 24.7055 15.5845 24.8969 15.725C25.0906 15.8631 25.2396 16.0266 25.3438 16.2155C25.4479 16.402 25.5 16.6345 25.5 16.9131Z" fill="#2C0076"/>
</svg>
