<svg width="131" height="36" viewBox="0 0 131 36" fill="none" xmlns="http://www.w3.org/2000/svg">
  <path d="M24.5391 25.4844C24.5391 27.5156 24.0469 29.2812 23.0625 30.7812C22.0781 32.2812 20.6406 33.4375 18.75 34.25C16.875 35.0625 14.5938 35.4688 11.9062 35.4688C10.7188 35.4688 9.55469 35.3906 8.41406 35.2344C7.28906 35.0781 6.20312 34.8516 5.15625 34.5547C4.125 34.2422 3.14062 33.8594 2.20312 33.4062V26.6562C3.82812 27.375 5.51562 28.0234 7.26562 28.6016C9.01562 29.1797 10.75 29.4688 12.4688 29.4688C13.6562 29.4688 14.6094 29.3125 15.3281 29C16.0625 28.6875 16.5938 28.2578 16.9219 27.7109C17.25 27.1641 17.4141 26.5391 17.4141 25.8359C17.4141 24.9766 17.125 24.2422 16.5469 23.6328C15.9688 23.0234 15.1719 22.4531 14.1562 21.9219C13.1562 21.3906 12.0234 20.8203 10.7578 20.2109C9.96094 19.8359 9.09375 19.3828 8.15625 18.8516C7.21875 18.3047 6.32812 17.6406 5.48438 16.8594C4.64062 16.0781 3.94531 15.1328 3.39844 14.0234C2.86719 12.8984 2.60156 11.5547 2.60156 9.99219C2.60156 7.94531 3.07031 6.19531 4.00781 4.74219C4.94531 3.28906 6.28125 2.17969 8.01562 1.41406C9.76562 0.632813 11.8281 0.242188 14.2031 0.242188C15.9844 0.242188 17.6797 0.453125 19.2891 0.875C20.9141 1.28125 22.6094 1.875 24.375 2.65625L22.0312 8.30469C20.4531 7.66406 19.0391 7.17188 17.7891 6.82812C16.5391 6.46875 15.2656 6.28906 13.9688 6.28906C13.0625 6.28906 12.2891 6.4375 11.6484 6.73438C11.0078 7.01562 10.5234 7.42187 10.1953 7.95312C9.86719 8.46875 9.70312 9.07031 9.70312 9.75781C9.70312 10.5703 9.9375 11.2578 10.4062 11.8203C10.8906 12.3672 11.6094 12.8984 12.5625 13.4141C13.5312 13.9297 14.7344 14.5312 16.1719 15.2188C17.9219 16.0469 19.4141 16.9141 20.6484 17.8203C21.8984 18.7109 22.8594 19.7656 23.5312 20.9844C24.2031 22.1875 24.5391 23.6875 24.5391 25.4844ZM72.8438 0.734375L64.125 35H55.8516L51.2109 17C51.1172 16.6562 50.9922 16.1328 50.8359 15.4297C50.6797 14.7266 50.5156 13.9609 50.3438 13.1328C50.1719 12.2891 50.0156 11.5 49.875 10.7656C49.75 10.0156 49.6641 9.42188 49.6172 8.98438C49.5703 9.42188 49.4766 10.0078 49.3359 10.7422C49.2109 11.4766 49.0625 12.2578 48.8906 13.0859C48.7344 13.9141 48.5781 14.6875 48.4219 15.4062C48.2656 16.125 48.1406 16.6719 48.0469 17.0469L43.4297 35H35.1797L26.4375 0.734375H33.5859L37.9688 19.4375C38.0938 20 38.2344 20.6719 38.3906 21.4531C38.5625 22.2344 38.7266 23.0547 38.8828 23.9141C39.0547 24.7578 39.2031 25.5781 39.3281 26.375C39.4688 27.1562 39.5703 27.8359 39.6328 28.4141C39.7109 27.8203 39.8125 27.1328 39.9375 26.3516C40.0625 25.5547 40.1953 24.75 40.3359 23.9375C40.4922 23.1094 40.6484 22.3438 40.8047 21.6406C40.9609 20.9375 41.1016 20.3672 41.2266 19.9297L46.2188 0.734375H53.0859L58.0781 19.9297C58.1875 20.3516 58.3125 20.9219 58.4531 21.6406C58.6094 22.3438 58.7656 23.1094 58.9219 23.9375C59.0781 24.7656 59.2188 25.5781 59.3438 26.375C59.4844 27.1562 59.5859 27.8359 59.6484 28.4141C59.7578 27.6328 59.9062 26.6875 60.0938 25.5781C60.2969 24.4531 60.5078 23.3359 60.7266 22.2266C60.9609 21.1172 61.1641 20.1875 61.3359 19.4375L65.6953 0.734375H72.8438ZM91.7109 6.28906C90.3203 6.28906 89.0859 6.5625 88.0078 7.10938C86.9453 7.64063 86.0469 8.41406 85.3125 9.42969C84.5938 10.4453 84.0469 11.6719 83.6719 13.1094C83.2969 14.5469 83.1094 16.1641 83.1094 17.9609C83.1094 20.3828 83.4062 22.4531 84 24.1719C84.6094 25.875 85.5469 27.1797 86.8125 28.0859C88.0781 28.9766 89.7109 29.4219 91.7109 29.4219C93.1016 29.4219 94.4922 29.2656 95.8828 28.9531C97.2891 28.6406 98.8125 28.1953 100.453 27.6172V33.7109C98.9375 34.3359 97.4453 34.7812 95.9766 35.0469C94.5078 35.3281 92.8594 35.4688 91.0312 35.4688C87.5 35.4688 84.5938 34.7422 82.3125 33.2891C80.0469 31.8203 78.3672 29.7734 77.2734 27.1484C76.1797 24.5078 75.6328 21.4297 75.6328 17.9141C75.6328 15.3203 75.9844 12.9453 76.6875 10.7891C77.3906 8.63281 78.4219 6.76562 79.7812 5.1875C81.1406 3.60938 82.8203 2.39063 84.8203 1.53125C86.8203 0.671875 89.1172 0.242188 91.7109 0.242188C93.4141 0.242188 95.1172 0.460937 96.8203 0.898438C98.5391 1.32031 100.18 1.90625 101.742 2.65625L99.3984 8.5625C98.1172 7.95312 96.8281 7.42187 95.5312 6.96875C94.2344 6.51563 92.9609 6.28906 91.7109 6.28906ZM127.992 25.4844C127.992 27.5156 127.5 29.2812 126.516 30.7812C125.531 32.2812 124.094 33.4375 122.203 34.25C120.328 35.0625 118.047 35.4688 115.359 35.4688C114.172 35.4688 113.008 35.3906 111.867 35.2344C110.742 35.0781 109.656 34.8516 108.609 34.5547C107.578 34.2422 106.594 33.8594 105.656 33.4062V26.6562C107.281 27.375 108.969 28.0234 110.719 28.6016C112.469 29.1797 114.203 29.4688 115.922 29.4688C117.109 29.4688 118.062 29.3125 118.781 29C119.516 28.6875 120.047 28.2578 120.375 27.7109C120.703 27.1641 120.867 26.5391 120.867 25.8359C120.867 24.9766 120.578 24.2422 120 23.6328C119.422 23.0234 118.625 22.4531 117.609 21.9219C116.609 21.3906 115.477 20.8203 114.211 20.2109C113.414 19.8359 112.547 19.3828 111.609 18.8516C110.672 18.3047 109.781 17.6406 108.938 16.8594C108.094 16.0781 107.398 15.1328 106.852 14.0234C106.32 12.8984 106.055 11.5547 106.055 9.99219C106.055 7.94531 106.523 6.19531 107.461 4.74219C108.398 3.28906 109.734 2.17969 111.469 1.41406C113.219 0.632813 115.281 0.242188 117.656 0.242188C119.438 0.242188 121.133 0.453125 122.742 0.875C124.367 1.28125 126.062 1.875 127.828 2.65625L125.484 8.30469C123.906 7.66406 122.492 7.17188 121.242 6.82812C119.992 6.46875 118.719 6.28906 117.422 6.28906C116.516 6.28906 115.742 6.4375 115.102 6.73438C114.461 7.01562 113.977 7.42187 113.648 7.95312C113.32 8.46875 113.156 9.07031 113.156 9.75781C113.156 10.5703 113.391 11.2578 113.859 11.8203C114.344 12.3672 115.062 12.8984 116.016 13.4141C116.984 13.9297 118.188 14.5312 119.625 15.2188C121.375 16.0469 122.867 16.9141 124.102 17.8203C125.352 18.7109 126.312 19.7656 126.984 20.9844C127.656 22.1875 127.992 23.6875 127.992 25.4844Z" fill="#2C0076"/>
</svg>
